<?xml version="1.0" encoding="utf-8"?>
<!-- Generator: Adobe Illustrator 18.1.1, SVG Export Plug-In . SVG Version: 6.00 Build 0)  -->
<svg version="1.1" baseProfile="tiny" id="Layer_1" xmlns="http://www.w3.org/2000/svg" xmlns:xlink="http://www.w3.org/1999/xlink"
	 x="0px" y="0px" viewBox="0 0 120.5 139.2" xml:space="preserve">
<polygon fill="#F69322" points="120.5,81.2 100.4,69.6 60.3,92.8 20.1,69.6 0,81.2 60.3,116 "/>
<linearGradient id="SVGID_1_" gradientUnits="userSpaceOnUse" x1="50.2167" y1="29.257" x2="50.2167" y2="53.0177">
	<stop  offset="0" style="stop-color:#F16324"/>
	<stop  offset="1" style="stop-color:#7A3318"/>
</linearGradient>
<polygon fill="url(#SVGID_1_)" points="40.2,58 60.3,46.4 60.3,23.2 40.2,34.8 "/>
<polygon fill="#F06324" points="20.1,92.8 40.2,81.2 40.2,58 20.1,69.6 "/>
<polygon fill="#F9A95B" points="60.3,81.2 80.4,92.8 60.3,104.4 40.2,92.8 "/>
<linearGradient id="SVGID_2_" gradientUnits="userSpaceOnUse" x1="75.2326" y1="33.7692" x2="64.6179" y2="48.4665">
	<stop  offset="0" style="stop-color:#CC3332"/>
	<stop  offset="1" style="stop-color:#7B1517"/>
</linearGradient>
<polygon fill="url(#SVGID_2_)" points="80.3,58 80.3,34.8 60.3,23.2 60.3,46.4 "/>
<linearGradient id="SVGID_3_" gradientUnits="userSpaceOnUse" x1="4.609946e-002" y1="35.0774" x2="59.4887" y2="137.6322">
	<stop  offset="0" style="stop-color:#CC3332"/>
	<stop  offset="1" style="stop-color:#7B1517"/>
</linearGradient>
<polygon fill="url(#SVGID_3_)" points="20.1,69.6 60.3,92.8 60.3,69.6 0,34.8 0,104.4 60.3,139.2 60.3,139.2 60.3,139.2 60.3,104.4 
	40.2,92.8 40.2,104.4 20.1,92.8 "/>
<linearGradient id="SVGID_4_" gradientUnits="userSpaceOnUse" x1="49.9838" y1="86.8527" x2="110.2446" y2="121.6374">
	<stop  offset="0" style="stop-color:#F16324"/>
	<stop  offset="1" style="stop-color:#7A3318"/>
</linearGradient>
<polygon fill="url(#SVGID_4_)" points="120.5,81.2 80.3,104.4 80.3,58 60.3,69.6 60.3,139.2 120.5,104.4 "/>
<linearGradient id="SVGID_5_" gradientUnits="userSpaceOnUse" x1="52.8927" y1="0.1073" x2="52.8927" y2="68.7023">
	<stop  offset="0" style="stop-color:#F16324"/>
	<stop  offset="1" style="stop-color:#F69322"/>
</linearGradient>
<path fill="url(#SVGID_5_)" d="M91.8,18.2L60.3,0L0,34.8l60.3,34.8l31.5-17.4c3.6-2,6.4-4,8.5-5.9l0.1-0.1
	C116.4,31.2,91.8,18.2,91.8,18.2z M60.3,46.4L40.2,34.8v0l20.1-11.6l12.6,7.3c0,0,7.5,4.3,0,8.7L60.3,46.4z"/>
<g>
	<path fill="#FAAF3C" d="M60.3,69.6c0,0-13.8-7.3-30.4-16.9S0,34.8,0,34.8s13.8,7.3,30.4,16.9S60.3,69.6,60.3,69.6z"/>
</g>
<g>
	<path fill="#FAAF3C" d="M80.4,58.5c0,0-4.3,2.8-9.9,5.8c-5.5,3.1-10.2,5.3-10.2,5.3s4.3-2.8,9.9-5.8C75.7,60.7,80.4,58.5,80.4,58.5
		z"/>
</g>
</svg>
