<?xml version="1.0" standalone="no"?>
<!DOCTYPE svg PUBLIC "-//W3C//DTD SVG 20010904//EN"
 "http://www.w3.org/TR/2001/REC-SVG-20010904/DTD/svg10.dtd">
<svg version="1.0" xmlns="http://www.w3.org/2000/svg"
 width="885.000000pt" height="885.000000pt" viewBox="0 0 885.000000 885.000000"
 preserveAspectRatio="xMidYMid meet">
<metadata>
Created by potrace 1.11, written by Peter Selinger 2001-2013
</metadata>
<g transform="translate(0.000000,885.000000) scale(0.100000,-0.100000)"
fill="#000000" stroke="none">
<path d="M3932 8804 c-812 -98 -1580 -422 -2226 -937 -198 -158 -515 -475
-673 -673 -427 -535 -719 -1147 -867 -1814 -111 -504 -129 -1125 -46 -1640
122 -750 434 -1454 913 -2054 158 -198 475 -515 673 -673 462 -369 993 -643
1542 -797 429 -121 759 -166 1212 -166 453 0 783 45 1212 166 549 154 1080
428 1542 797 198 158 515 475 673 673 427 535 719 1147 867 1814 111 504 129
1125 46 1640 -122 750 -434 1454 -913 2054 -158 198 -475 515 -673 673 -159
127 -402 293 -568 388 -511 292 -1087 482 -1671 550 -172 20 -876 19 -1043 -1z"/>
</g>
</svg>
